<svg width="301" height="56" viewBox="0 0 301 56" fill="none" xmlns="http://www.w3.org/2000/svg">
<rect width="301" height="56" rx="6" fill="url(#paint0_linear_393_3216)"/>
<path d="M57.86 24H54.06L52.96 21.22H47.48L46.44 24H42.72L48.66 9.84H51.98L57.86 24ZM52.02 18.48L50.26 13.62L48.46 18.48H52.02ZM62.4703 24H59.0303V9.84H62.4703V24ZM74.7375 20.06H69.6575V17.46H74.7375V20.06ZM89.4266 19.16C89.4266 19.6533 89.3866 20.1267 89.3066 20.58C89.2399 21.02 89.0999 21.48 88.8866 21.96C88.6866 22.44 88.4199 22.8533 88.0866 23.2C87.7532 23.5467 87.2999 23.8267 86.7266 24.04C86.1666 24.2667 85.5132 24.38 84.7666 24.38C83.6066 24.38 82.6132 24.0733 81.7866 23.46C80.9732 22.8467 80.4332 22.0467 80.1666 21.06L83.1866 20.04C83.2799 20.4133 83.4466 20.7133 83.6866 20.94C83.9399 21.1667 84.2466 21.28 84.6066 21.28C85.1266 21.28 85.4866 21.1 85.6866 20.74C85.8866 20.38 85.9866 19.86 85.9866 19.18V9.84H89.4266V19.16ZM101.813 24H98.6525V22.62H98.6125C98.3725 23.0867 97.9792 23.48 97.4325 23.8C96.8858 24.12 96.2792 24.28 95.6125 24.28C94.3725 24.28 93.4592 23.8867 92.8725 23.1C92.2858 22.3 91.9925 21.3333 91.9925 20.2V14.04H95.2925V19.44C95.2925 20.8533 95.7858 21.56 96.7725 21.56C97.3192 21.56 97.7458 21.3533 98.0525 20.94C98.3725 20.5267 98.5325 20.02 98.5325 19.42V14.04H101.813V24ZM114.218 24H110.918V18.56C110.918 17.16 110.424 16.46 109.438 16.46C108.878 16.46 108.444 16.6667 108.138 17.08C107.831 17.4933 107.678 18 107.678 18.6V24H104.378V14.04H107.558V15.42H107.598C107.838 14.9533 108.224 14.56 108.758 14.24C109.304 13.92 109.911 13.76 110.578 13.76C111.818 13.76 112.731 14.16 113.318 14.96C113.918 15.7467 114.218 16.7067 114.218 17.84V24ZM120.262 10.86C120.262 11.3667 120.075 11.7933 119.702 12.14C119.342 12.4867 118.902 12.66 118.382 12.66C117.862 12.66 117.415 12.4867 117.042 12.14C116.682 11.78 116.502 11.3533 116.502 10.86C116.502 10.38 116.682 9.96 117.042 9.6C117.415 9.24 117.862 9.06 118.382 9.06C118.902 9.06 119.342 9.24 119.702 9.6C120.075 9.94667 120.262 10.3667 120.262 10.86ZM120.022 24H116.742V14.04H120.022V24ZM131.58 15.16C132.647 16.12 133.18 17.3933 133.18 18.98C133.18 20.5667 132.647 21.8533 131.58 22.84C130.513 23.8267 129.2 24.32 127.64 24.32C126.093 24.32 124.787 23.8267 123.72 22.84C122.653 21.8533 122.12 20.5667 122.12 18.98C122.12 17.3933 122.653 16.12 123.72 15.16C124.787 14.2 126.093 13.72 127.64 13.72C129.2 13.72 130.513 14.2 131.58 15.16ZM130.02 18.98C130.02 18.3 129.807 17.7067 129.38 17.2C128.953 16.6933 128.373 16.44 127.64 16.44C126.907 16.44 126.333 16.6933 125.92 17.2C125.507 17.6933 125.3 18.2867 125.3 18.98C125.3 19.6733 125.507 20.28 125.92 20.8C126.347 21.3067 126.927 21.56 127.66 21.56C128.393 21.56 128.967 21.3067 129.38 20.8C129.807 20.28 130.02 19.6733 130.02 18.98ZM141.857 13.84L141.717 16.72C141.463 16.6533 141.183 16.62 140.877 16.62C140.09 16.62 139.503 16.8667 139.117 17.36C138.73 17.84 138.537 18.3467 138.537 18.88V24H135.257V14.04H138.417V15.48H138.457C138.71 14.96 139.077 14.5467 139.557 14.24C140.037 13.92 140.57 13.76 141.157 13.76C141.477 13.76 141.71 13.7867 141.857 13.84ZM157.286 24H148.366V9.84H151.806V21.02H157.286V24ZM161.002 17.88H165.222C165.222 17.3333 165.049 16.88 164.702 16.52C164.369 16.16 163.889 15.98 163.262 15.98C162.649 15.98 162.129 16.1667 161.702 16.54C161.275 16.9133 161.042 17.36 161.002 17.88ZM168.242 19.14C168.242 19.5 168.235 19.76 168.222 19.92H161.002C161.055 20.4533 161.315 20.9 161.782 21.26C162.249 21.62 162.782 21.8 163.382 21.8C164.342 21.8 165.075 21.4533 165.582 20.76L167.862 22.2C166.889 23.6133 165.382 24.32 163.342 24.32C161.782 24.32 160.475 23.8533 159.422 22.92C158.382 21.9733 157.862 20.6867 157.862 19.06C157.862 17.46 158.369 16.1733 159.382 15.2C160.409 14.2133 161.695 13.72 163.242 13.72C164.735 13.72 165.942 14.2067 166.862 15.18C167.782 16.14 168.242 17.46 168.242 19.14ZM180.356 14.04L176.436 24H172.896L168.976 14.04H172.596L174.696 20.5H174.756L176.856 14.04H180.356ZM184.264 17.88H188.484C188.484 17.3333 188.31 16.88 187.964 16.52C187.63 16.16 187.15 15.98 186.524 15.98C185.91 15.98 185.39 16.1667 184.964 16.54C184.537 16.9133 184.304 17.36 184.264 17.88ZM191.504 19.14C191.504 19.5 191.497 19.76 191.484 19.92H184.264C184.317 20.4533 184.577 20.9 185.044 21.26C185.51 21.62 186.044 21.8 186.644 21.8C187.604 21.8 188.337 21.4533 188.844 20.76L191.124 22.2C190.15 23.6133 188.644 24.32 186.604 24.32C185.044 24.32 183.737 23.8533 182.684 22.92C181.644 21.9733 181.124 20.6867 181.124 19.06C181.124 17.46 181.63 16.1733 182.644 15.2C183.67 14.2133 184.957 13.72 186.504 13.72C187.997 13.72 189.204 14.2067 190.124 15.18C191.044 16.14 191.504 17.46 191.504 19.14ZM196.898 24H193.578V8.88H196.898V24ZM202.635 20.86C203.035 21.2333 203.235 21.6933 203.235 22.24C203.235 22.7867 203.035 23.2533 202.635 23.64C202.248 24.0133 201.782 24.2 201.235 24.2C200.675 24.2 200.195 24.0133 199.795 23.64C199.395 23.2667 199.195 22.8067 199.195 22.26C199.195 21.7133 199.395 21.2467 199.795 20.86C200.195 20.4733 200.675 20.28 201.235 20.28C201.782 20.28 202.248 20.4733 202.635 20.86Z" fill="white"/>
<path d="M44.29 45V34.38H52.585V45H51.1V35.685H45.775V45H44.29ZM55.0841 48.6V37.89H56.4641V39H56.5091C56.7491 38.61 57.0941 38.295 57.5441 38.055C57.9941 37.815 58.5041 37.695 59.0741 37.695C60.1141 37.695 60.9641 38.055 61.6241 38.775C62.2941 39.485 62.6291 40.37 62.6291 41.43C62.6291 42.5 62.2991 43.395 61.6391 44.115C60.9791 44.835 60.1141 45.195 59.0441 45.195C58.5341 45.195 58.0541 45.085 57.6041 44.865C57.1541 44.635 56.7991 44.325 56.5391 43.935H56.4941V48.6H55.0841ZM58.8041 44.01C59.5441 44.01 60.1241 43.76 60.5441 43.26C60.9641 42.75 61.1741 42.14 61.1741 41.43C61.1741 40.72 60.9641 40.115 60.5441 39.615C60.1241 39.115 59.5441 38.865 58.8041 38.865C58.1041 38.865 57.5291 39.12 57.0791 39.63C56.6291 40.14 56.4041 40.745 56.4041 41.445C56.4041 42.145 56.6291 42.75 57.0791 43.26C57.5291 43.76 58.1041 44.01 58.8041 44.01ZM70.681 44.13C69.951 44.84 69.041 45.195 67.951 45.195C66.861 45.195 65.951 44.84 65.221 44.13C64.491 43.42 64.126 42.52 64.126 41.43C64.126 40.34 64.486 39.445 65.206 38.745C65.936 38.045 66.851 37.695 67.951 37.695C69.051 37.695 69.966 38.045 70.696 38.745C71.426 39.445 71.791 40.34 71.791 41.43C71.791 42.52 71.421 43.42 70.681 44.13ZM66.211 43.26C66.641 43.76 67.221 44.01 67.951 44.01C68.681 44.01 69.256 43.76 69.676 43.26C70.106 42.75 70.321 42.14 70.321 41.43C70.321 40.72 70.106 40.115 69.676 39.615C69.256 39.115 68.681 38.865 67.951 38.865C67.221 38.865 66.641 39.115 66.211 39.615C65.791 40.115 65.581 40.72 65.581 41.43C65.581 42.14 65.791 42.75 66.211 43.26ZM72.6255 47.175V43.83H73.4055C74.1155 42.92 74.4705 41.56 74.4705 39.75V37.89H79.9455V43.83H81.0405V47.175H79.8105V45H73.8555V47.175H72.6255ZM74.9355 43.83H78.5505V39.045H75.8205V40.125C75.8205 41.555 75.5255 42.79 74.9355 43.83ZM88.7718 44.13C88.0418 44.84 87.1318 45.195 86.0418 45.195C84.9518 45.195 84.0418 44.84 83.3118 44.13C82.5818 43.42 82.2168 42.52 82.2168 41.43C82.2168 40.34 82.5768 39.445 83.2968 38.745C84.0268 38.045 84.9418 37.695 86.0418 37.695C87.1418 37.695 88.0568 38.045 88.7868 38.745C89.5168 39.445 89.8818 40.34 89.8818 41.43C89.8818 42.52 89.5118 43.42 88.7718 44.13ZM84.3018 43.26C84.7318 43.76 85.3118 44.01 86.0418 44.01C86.7718 44.01 87.3468 43.76 87.7668 43.26C88.1968 42.75 88.4118 42.14 88.4118 41.43C88.4118 40.72 88.1968 40.115 87.7668 39.615C87.3468 39.115 86.7718 38.865 86.0418 38.865C85.3118 38.865 84.7318 39.115 84.3018 39.615C83.8818 40.115 83.6718 40.72 83.6718 41.43C83.6718 42.14 83.8818 42.75 84.3018 43.26ZM91.5413 45.09C91.1913 45.09 90.8863 45.055 90.6263 44.985L90.7463 43.8C90.8963 43.85 91.0563 43.875 91.2263 43.875C91.7363 43.875 92.1163 43.615 92.3663 43.095C92.6163 42.565 92.7413 41.655 92.7413 40.365V37.89H98.2013V45H96.7913V39.045H94.1063V40.74C94.1063 42.18 93.9013 43.265 93.4913 43.995C93.0913 44.725 92.4413 45.09 91.5413 45.09ZM99.4411 45L102.831 41.28L99.7411 37.89H101.586L104.391 41.19H104.436V37.89H105.846V41.19H105.891L108.696 37.89H110.541L107.436 41.28L110.841 45H108.981L105.891 41.49H105.846V45H104.436V41.49H104.391L101.301 45H99.4411ZM112.081 45V37.89H113.491V43.02H113.506L117.151 37.89H118.696V45H117.286V39.855H117.256L113.626 45H112.081ZM122.619 45V39.045H120.204V37.89H126.444V39.045H124.029V45H122.619ZM131.069 45.195C129.979 45.195 129.079 44.85 128.369 44.16C127.669 43.47 127.319 42.57 127.319 41.46C127.319 40.36 127.669 39.46 128.369 38.76C129.069 38.05 129.944 37.695 130.994 37.695C132.044 37.695 132.874 38.03 133.484 38.7C134.104 39.36 134.414 40.255 134.414 41.385C134.414 41.595 134.409 41.755 134.399 41.865H128.759C128.779 42.475 129.014 42.99 129.464 43.41C129.914 43.82 130.449 44.025 131.069 44.025C131.959 44.025 132.649 43.665 133.139 42.945L134.129 43.74C133.379 44.71 132.359 45.195 131.069 45.195ZM128.759 40.815H132.989C132.969 40.225 132.789 39.745 132.449 39.375C132.109 38.995 131.624 38.805 130.994 38.805C130.394 38.805 129.884 39 129.464 39.39C129.044 39.78 128.809 40.255 128.759 40.815ZM136.263 45.09C135.913 45.09 135.608 45.055 135.348 44.985L135.468 43.8C135.618 43.85 135.778 43.875 135.948 43.875C136.458 43.875 136.838 43.615 137.088 43.095C137.338 42.565 137.463 41.655 137.463 40.365V37.89H142.923V45H141.513V39.045H138.828V40.74C138.828 42.18 138.623 43.265 138.213 43.995C137.813 44.725 137.163 45.09 136.263 45.09ZM145.348 45V37.89H146.758V40.47H148.378C149.258 40.47 149.948 40.665 150.448 41.055C150.958 41.435 151.213 41.995 151.213 42.735C151.213 43.465 150.963 44.025 150.463 44.415C149.963 44.805 149.273 45 148.393 45H145.348ZM146.758 43.875H148.213C149.263 43.875 149.788 43.5 149.788 42.75C149.788 41.97 149.263 41.58 148.213 41.58H146.758V43.875ZM152.95 45V37.89H154.36V40.71H157.885V37.89H159.295V45H157.885V41.865H154.36V45H152.95ZM167.815 44.13C167.085 44.84 166.175 45.195 165.085 45.195C163.995 45.195 163.085 44.84 162.355 44.13C161.625 43.42 161.26 42.52 161.26 41.43C161.26 40.34 161.62 39.445 162.34 38.745C163.07 38.045 163.985 37.695 165.085 37.695C166.185 37.695 167.1 38.045 167.83 38.745C168.56 39.445 168.925 40.34 168.925 41.43C168.925 42.52 168.555 43.42 167.815 44.13ZM163.345 43.26C163.775 43.76 164.355 44.01 165.085 44.01C165.815 44.01 166.39 43.76 166.81 43.26C167.24 42.75 167.455 42.14 167.455 41.43C167.455 40.72 167.24 40.115 166.81 39.615C166.39 39.115 165.815 38.865 165.085 38.865C164.355 38.865 163.775 39.115 163.345 39.615C162.925 40.115 162.715 40.72 162.715 41.43C162.715 42.14 162.925 42.75 163.345 43.26ZM174.24 45.195C173.13 45.195 172.215 44.85 171.495 44.16C170.775 43.47 170.415 42.565 170.415 41.445C170.415 40.335 170.77 39.435 171.48 38.745C172.2 38.045 173.11 37.695 174.21 37.695C174.73 37.695 175.235 37.8 175.725 38.01C176.215 38.21 176.6 38.495 176.88 38.865L175.86 39.69C175.71 39.45 175.48 39.255 175.17 39.105C174.87 38.955 174.555 38.88 174.225 38.88C173.515 38.88 172.95 39.13 172.53 39.63C172.11 40.13 171.9 40.735 171.9 41.445C171.9 42.155 172.11 42.76 172.53 43.26C172.96 43.76 173.53 44.01 174.24 44.01C174.97 44.01 175.54 43.75 175.95 43.23L176.895 44.085C176.255 44.825 175.37 45.195 174.24 45.195ZM180.056 45V39.045H177.641V37.89H183.881V39.045H181.466V45H180.056ZM185.397 45V37.89H186.807V40.47H188.427C189.307 40.47 189.997 40.665 190.497 41.055C191.007 41.435 191.262 41.995 191.262 42.735C191.262 43.465 191.012 44.025 190.512 44.415C190.012 44.805 189.322 45 188.442 45H185.397ZM186.807 43.875H188.262C189.312 43.875 189.837 43.5 189.837 42.75C189.837 41.97 189.312 41.58 188.262 41.58H186.807V43.875ZM201.219 34.38V45H199.764V36.15L197.754 37.83L196.899 36.825L199.914 34.38H201.219ZM209.42 45V37.89H214.265V39.045H210.83V45H209.42ZM221.692 44.13C220.962 44.84 220.052 45.195 218.962 45.195C217.872 45.195 216.962 44.84 216.232 44.13C215.502 43.42 215.137 42.52 215.137 41.43C215.137 40.34 215.497 39.445 216.217 38.745C216.947 38.045 217.862 37.695 218.962 37.695C220.062 37.695 220.977 38.045 221.707 38.745C222.437 39.445 222.802 40.34 222.802 41.43C222.802 42.52 222.432 43.42 221.692 44.13ZM217.222 43.26C217.652 43.76 218.232 44.01 218.962 44.01C219.692 44.01 220.267 43.76 220.687 43.26C221.117 42.75 221.332 42.14 221.332 41.43C221.332 40.72 221.117 40.115 220.687 39.615C220.267 39.115 219.692 38.865 218.962 38.865C218.232 38.865 217.652 39.115 217.222 39.615C216.802 40.115 216.592 40.72 216.592 41.43C216.592 42.14 216.802 42.75 217.222 43.26ZM223.636 47.175V43.83H224.416C225.126 42.92 225.481 41.56 225.481 39.75V37.89H230.956V43.83H232.051V47.175H230.821V45H224.866V47.175H223.636ZM225.946 43.83H229.561V39.045H226.831V40.125C226.831 41.555 226.536 42.79 225.946 43.83Z" fill="#08B1B9"/>
<g filter="url(#filter0_d_393_3216)">
<circle cx="22" cy="19" r="5" fill="url(#paint1_linear_393_3216)"/>
</g>
<rect x="260" y="13" width="30" height="30" rx="5" fill="url(#paint2_linear_393_3216)" fill-opacity="0.11" stroke="url(#paint3_diamond_393_3216)" stroke-width="2"/>
<path d="M269.061 30.9395L276.061 23.9395M280.939 30.9395L273.939 23.9395" stroke="#4ABCEC" stroke-width="3"/>
<defs>
<filter id="filter0_d_393_3216" x="9" y="10" width="26" height="26" filterUnits="userSpaceOnUse" color-interpolation-filters="sRGB">
<feFlood flood-opacity="0" result="BackgroundImageFix"/>
<feColorMatrix in="SourceAlpha" type="matrix" values="0 0 0 0 0 0 0 0 0 0 0 0 0 0 0 0 0 0 127 0" result="hardAlpha"/>
<feOffset dy="4"/>
<feGaussianBlur stdDeviation="4"/>
<feComposite in2="hardAlpha" operator="out"/>
<feColorMatrix type="matrix" values="0 0 0 0 0 0 0 0 0 0.88 0 0 0 0 1 0 0 0 0.56 0"/>
<feBlend mode="normal" in2="BackgroundImageFix" result="effect1_dropShadow_393_3216"/>
<feBlend mode="normal" in="SourceGraphic" in2="effect1_dropShadow_393_3216" result="shape"/>
</filter>
<linearGradient id="paint0_linear_393_3216" x1="289.556" y1="54.2889" x2="192.452" y2="-99.3963" gradientUnits="userSpaceOnUse">
<stop stop-color="#093F56"/>
<stop offset="1" stop-color="#0B3136"/>
</linearGradient>
<linearGradient id="paint1_linear_393_3216" x1="22" y1="14" x2="22" y2="24" gradientUnits="userSpaceOnUse">
<stop stop-color="#00E0FF"/>
<stop offset="1" stop-color="#4A8BEC"/>
</linearGradient>
<linearGradient id="paint2_linear_393_3216" x1="275" y1="12" x2="275" y2="44" gradientUnits="userSpaceOnUse">
<stop stop-color="#00E0FF"/>
<stop offset="1" stop-color="#00E0FF" stop-opacity="0.49"/>
</linearGradient>
<radialGradient id="paint3_diamond_393_3216" cx="0" cy="0" r="1" gradientUnits="userSpaceOnUse" gradientTransform="translate(275 28) rotate(135.468) scale(21.3425 35.96)">
<stop stop-color="#49B9E8"/>
<stop offset="1" stop-color="#1F4D60" stop-opacity="0.43"/>
</radialGradient>
</defs>
</svg>
