<svg width="37" height="35" viewBox="0 0 37 35" fill="none" xmlns="http://www.w3.org/2000/svg">
<path d="M8.7611 2.0918C8.19165 2.04805 7.55861 2.20391 6.9747 2.5922C6.46017 2.93126 5.35017 3.76524 4.31243 4.7086C3.79501 5.17891 3.30071 5.66837 2.91915 6.14962C2.5347 6.63087 2.19939 7.0711 2.21962 7.71095C2.23986 8.28516 2.30056 9.98321 3.59267 12.5863C4.88478 15.1867 7.39095 18.7551 12.279 23.3816C17.1699 28.0082 20.9422 30.3789 23.6912 31.6012C26.4402 32.8234 28.2381 32.8809 28.8452 32.9C29.5187 32.9191 29.9841 32.602 30.4928 32.2383C31.0016 31.8746 31.519 31.4098 32.0162 30.9203C33.0106 29.9387 33.8922 28.8887 34.2506 28.402C35.0687 27.3 34.9328 25.9984 34.0223 25.3941C33.4499 25.0141 28.1861 21.7 27.3941 21.2406C26.5905 20.7758 25.6655 20.9863 24.8388 21.3992C24.1884 21.7246 22.428 22.6789 21.925 22.9524C21.5463 22.7254 20.1097 21.8203 17.0196 18.8973C13.9267 15.9742 12.9727 14.6152 12.7328 14.257C13.0219 13.7813 14.0278 12.1242 14.3747 11.4981C14.8083 10.7188 15.0511 9.83555 14.5337 9.06993C14.3169 8.74454 13.3312 7.3254 12.3368 5.90079C11.3395 4.47618 10.3943 3.1254 10.1486 2.80274V2.80001C9.82774 2.38165 9.32767 2.13555 8.7611 2.0918ZM8.62525 3.52188C8.82759 3.54649 8.949 3.62305 8.949 3.62305C9.06751 3.77891 10.1052 5.25001 11.0996 6.67188C12.094 8.09649 13.1086 9.55665 13.2849 9.82188C13.3138 9.8629 13.3543 10.3277 13.0652 10.8445V10.8473C12.7386 11.4352 11.2152 13.9535 11.2152 13.9535L11.0042 14.3063L11.221 14.6563C11.221 14.6563 12.357 16.4691 15.9703 19.8871C19.5865 23.3051 21.503 24.3824 21.503 24.3824L21.873 24.5875L22.2459 24.3879C22.2459 24.3879 24.9024 22.9496 25.5296 22.6379C26.0759 22.3672 26.5674 22.4027 26.6252 22.4356C27.1368 22.7336 32.8227 26.3074 33.1724 26.5399C33.184 26.5481 33.4933 26.991 33.0424 27.5981H33.0395C32.7677 27.9672 31.8774 29.0363 30.9495 29.9496C30.4842 30.4063 30.0072 30.8328 29.6025 31.1199C29.1978 31.407 28.8365 31.4973 28.8943 31.5C28.2642 31.4809 26.8738 31.4672 24.3213 30.3324C21.7689 29.2004 18.1267 26.9336 13.3254 22.3891C8.52696 17.85 6.13064 14.4047 4.93103 11.9875C3.73431 9.57305 3.71986 8.25782 3.69962 7.66446C3.70251 7.71915 3.7979 7.37462 4.10142 6.99181C4.40493 6.60899 4.85298 6.15509 5.33571 5.71485C6.30407 4.83712 7.43142 3.99493 7.82165 3.7379V3.74063C8.14251 3.52735 8.4229 3.50001 8.62525 3.52188Z" fill="url(#paint0_linear_341_3015)"/>
<defs>
<linearGradient id="paint0_linear_341_3015" x1="18.5053" y1="2.08466" x2="18.5053" y2="32.9008" gradientUnits="userSpaceOnUse">
<stop stop-color="#4ABCEC"/>
<stop offset="1" stop-color="#4A8BEC"/>
</linearGradient>
</defs>
</svg>
