<svg width="33" height="33" viewBox="0 0 33 33" fill="none" xmlns="http://www.w3.org/2000/svg">
<path d="M11.5503 5.93994C5.90826 5.93994 1.32031 10.5279 1.32031 16.1699C1.32031 21.812 5.90826 26.3999 11.5503 26.3999C17.1924 26.3999 21.7803 21.812 21.7803 16.1699C21.7803 10.5279 17.1924 5.93994 11.5503 5.93994ZM17.1603 11.8799C17.3291 11.8799 17.4979 11.9443 17.627 12.0733C17.885 12.3314 17.885 12.7485 17.627 13.0066L9.70695 20.9266C9.57825 21.0553 9.40927 21.1199 9.24031 21.1199C9.07135 21.1199 8.90237 21.0553 8.77367 20.9266L5.47367 17.6266C5.21561 17.3685 5.21561 16.9514 5.47367 16.6933C5.73173 16.4352 6.14889 16.4352 6.40695 16.6933L9.24031 19.5267L16.6937 12.0733C16.8227 11.9443 16.9915 11.8799 17.1603 11.8799ZM25.0803 15.8399C24.9053 15.8399 24.7374 15.9095 24.6136 16.0332C24.4898 16.157 24.4203 16.3249 24.4203 16.4999C24.4203 16.675 24.4898 16.8429 24.6136 16.9666C24.7374 17.0904 24.9053 17.1599 25.0803 17.1599H33.0003V15.8399H25.0803Z" fill="url(#paint0_linear_349_3118)"/>
<defs>
<linearGradient id="paint0_linear_349_3118" x1="37.0619" y1="5.93994" x2="14.9161" y2="36.3198" gradientUnits="userSpaceOnUse">
<stop offset="0.25" stop-color="#3B768F"/>
<stop offset="0.536458" stop-color="#3EC6FF"/>
<stop offset="0.817708" stop-color="#3B768F"/>
</linearGradient>
</defs>
</svg>
